<?xml version="1.0" encoding="UTF-8"?>
<svg version="1.1" xmlns="http://www.w3.org/2000/svg" viewbox="0 0 642 532" width="642" height="532">
<path d="M0 0 C1.80623943 0.34685964 3.61925012 0.66040822 5.4375 0.9375 C10.00243135 1.72604415 13.78009367 3.04633966 18 5 C19.28528993 5.45589344 20.57781091 5.89165621 21.875 6.3125 C26.51593027 7.83003602 31.13673527 9.40061064 35.75 11 C36.48331543 11.24919189 37.21663086 11.49838379 37.97216797 11.75512695 C41.96369898 13.14628084 45.42521334 14.70013726 49 17 C50.33061764 17.67207061 51.66422471 18.33823977 53 19 C81.57586914 34.31046824 81.57586914 34.31046824 87 40 C87.66 40.33 88.32 40.66 89 41 C91.14852141 42.0742607 92.46652965 43.15983558 94 45 C94 45.66 94 46.32 94 47 C94.99 47 95.98 47 97 47 C97 47.66 97 48.32 97 49 C97.61875 49.309375 98.2375 49.61875 98.875 49.9375 C100.25 50.625 101.625 51.3125 103 52 C103 52.66 103 53.32 103 54 C103.598125 54.25910156 104.19625 54.51820312 104.8125 54.78515625 C107.16499365 56.0916304 108.34096193 57.34116113 110 59.4375 C112.1453137 62.06197006 114.25711391 63.99558324 117 66 C117 66.66 117 67.32 117 68 C117.66 68 118.32 68 119 68 C120.53612476 69.74307894 122.00540359 71.54549096 123.4375 73.375 C125.88669719 76.49802904 127.68910701 78.79273801 131 81 C132.04644066 82.63790712 133.0398183 84.31008021 134 86 C134.721875 87.051875 135.44375 88.10375 136.1875 89.1875 C138 92 138 92 138 94 C138.66 94 139.32 94 140 94 C144.40070534 99.45893947 147.67977866 105.84907713 151 112 C151.85196357 113.54288525 152.70612057 115.0845614 153.5625 116.625 C153.97628906 117.37523438 154.39007813 118.12546875 154.81640625 118.8984375 C155.834969 120.70697465 156.91216301 122.4822649 158 124.25 C161.01550301 129.52109927 162.90084836 135.32206549 165 141 C165.52624273 142.3962488 166.05362378 143.792069 166.58203125 145.1875 C167.11739189 146.60408944 167.65255124 148.02075497 168.1875 149.4375 C168.43741699 150.09935303 168.68733398 150.76120605 168.94482422 151.44311523 C173.29214553 163.03352591 173.29214553 163.03352591 173 168 C174.32 168.33 175.64 168.66 177 169 C177 169.66 177 170.32 177 171 C177.94875 171.185625 178.8975 171.37125 179.875 171.5625 C185.98925662 173.27549214 191.55380132 177.55380132 196 182 C198.09035545 183.54468033 200.20276412 185.05534813 202.3203125 186.5625 C202.87460937 187.036875 203.42890625 187.51125 204 188 C204 188.66 204 189.32 204 190 C204.99 190.33 205.98 190.66 207 191 C207.33 191.99 207.66 192.98 208 194 C210.00016466 195.20882096 210.00016466 195.20882096 212 196 C212 196.66 212 197.32 212 198 C212.66 198.33 213.32 198.66 214 199 C214.12375 199.639375 214.2475 200.27875 214.375 200.9375 C214.58125 201.618125 214.7875 202.29875 215 203 C215.598125 203.25910156 216.19625 203.51820313 216.8125 203.78515625 C219.81728479 205.45388495 220.87449534 207.56963978 222.625 210.5 C225.00157046 214.4931336 225.00157046 214.4931336 228 218 C228 219.32 228 220.64 228 222 C228.66 222 229.32 222 230 222 C237.1834306 236.40936671 242.90203661 250.94931623 245 267 C245.16749756 267.75732422 245.33499512 268.51464844 245.50756836 269.29492188 C250.25874852 295.3946126 243.33223544 322.64773449 232 346 C231.40619196 347.37050895 230.82057946 348.74465879 230.25 350.125 C229 353 229 353 227 356 C227.58265625 356.26296875 228.1653125 356.5259375 228.765625 356.796875 C231.10607167 358.05711551 232.79459301 359.45619689 234.75 361.25 C238.18374853 364.34166456 241.75105502 367.08487516 245.53125 369.73828125 C246.0159375 370.15464844 246.500625 370.57101562 247 371 C247 371.66 247 372.32 247 373 C247.66 373.33 248.32 373.66 249 374 C250.30889333 375.10490996 251.59822387 376.23312852 252.875 377.375 C254.95454665 379.23315005 256.98187406 380.9871425 259.2578125 382.6015625 C260.12019531 383.29378906 260.12019531 383.29378906 261 384 C261 384.66 261 385.32 261 386 C261.66 386 262.32 386 263 386 C263 386.66 263 387.32 263 388 C263.78375 388.2475 264.5675 388.495 265.375 388.75 C268.32317108 390.15389099 268.9024777 391.00675737 270 394 C270.66 394 271.32 394 272 394 C272 394.66 272 395.32 272 396 C272.721875 396.20625 273.44375 396.4125 274.1875 396.625 C277.23575586 398.11525842 278.57335545 399.83311497 280.61328125 402.484375 C282.14040489 404.15345662 283.57569036 405.05746049 285.5625 406.125 C288.77960129 407.87978252 290.52818025 409.37369152 293 412 C294.85435307 413.5641065 296.72514548 415.10484486 298.609375 416.6328125 C299.06828125 417.08398438 299.5271875 417.53515625 300 418 C300 418.66 300 419.32 300 420 C300.928125 420.4021875 300.928125 420.4021875 301.875 420.8125 C304 422 304 422 306 425 C306.763125 425.45375 307.52625 425.9075 308.3125 426.375 C311.36155455 428.21861438 313.52277273 430.45582064 316 433 C316.66 433.33 317.32 433.66 318 434 C318 434.66 318 435.32 318 436 C318.99 436.33 319.98 436.66 321 437 C323.1875 438.875 323.1875 438.875 325 441 C325 441.99 325 442.98 325 444 C326.5778125 444.3403125 326.5778125 444.3403125 328.1875 444.6875 C332.17737846 445.82052837 334.33942076 447.79165445 337 451 C337.33 451.99 337.66 452.98 338 454 C338.99 454 339.98 454 341 454 C341 454.66 341 455.32 341 456 C341.66 456 342.32 456 343 456 C343 456.66 343 457.32 343 458 C343.66 458 344.32 458 345 458 C350.05872522 463.05872522 351.28951411 470.00342395 351.3125 476.9375 C351.16300565 486.41544188 348.04498578 492.75769784 341.4375 499.6875 C340.633125 500.450625 339.82875 501.21375 339 502 C338.443125 502.598125 337.88625 503.19625 337.3125 503.8125 C336 505 336 505 334 505 C334 505.66 334 506.32 334 507 C333.34 507 332.68 507 332 507 C332 507.66 332 508.32 332 509 C330.06469234 510.82729049 328.00952377 512.46895378 325.9453125 514.1484375 C323.97029308 516.02827526 323.18185725 517.58662764 322 520 C314.37267396 525.08488403 304.19600586 525.07434481 295.38671875 523.546875 C293.57378882 523.09605761 291.78248029 522.5592095 290 522 C290 521.34 290 520.68 290 520 C289.2575 519.773125 288.515 519.54625 287.75 519.3125 C284.47768636 517.75071394 283.13979061 515.87764944 281 513 C280.34 512.67 279.68 512.34 279 512 C278.54625 511.21625 278.0925 510.4325 277.625 509.625 C276.19232188 506.95445008 276.19232188 506.95445008 274 505.5 C271.52999746 503.6474981 270.52583823 501.6702169 269 499 C267.02987861 496.37317148 265.01002946 494.01002946 262.6875 491.6875 C258.45562886 487.45562886 254.27550938 483.18658751 251.25 478 C250.63125 477.01 250.63125 477.01 250 476 C249.01 476 248.02 476 247 476 C246.62875 475.113125 246.2575 474.22625 245.875 473.3125 C244.09330133 470.16483235 242.5162246 468.65058853 239.68359375 466.49609375 C236.87276712 463.99830582 234.80298539 460.93104178 232.61328125 457.890625 C231.05086439 455.73006878 231.05086439 455.73006878 228 455 C226.95355934 453.36209288 225.9601817 451.68991979 225 450 C223.31063982 447.78271477 221.66069335 445.63956653 219.65625 443.69921875 C216.56382673 440.52656751 213.91495118 436.95826374 211.15625 433.49609375 C209.06458312 430.85019755 209.06458312 430.85019755 206 429 C205.67 428.01 205.34 427.02 205 426 C203.3540349 424.31288577 201.68762851 422.6454378 200 421 C199.67 420.34 199.34 419.68 199 419 C198.01 418.67 197.02 418.34 196 418 C194.00603743 415.33916031 192 412.38757675 192 409 C191.40703125 408.90847656 190.8140625 408.81695312 190.203125 408.72265625 C187.47465343 407.82767887 186.52874959 406.66093699 184.75 404.4375 C184.22921875 403.79683594 183.7084375 403.15617187 183.171875 402.49609375 C182.78515625 402.00238281 182.3984375 401.50867188 182 401 C181.05125 401.495 180.1025 401.99 179.125 402.5 C176 404 176 404 174 404 C173.67 404.66 173.34 405.32 173 406 C170.67843403 406.40729228 168.3431213 406.74438677 166 407 C166 407.66 166 408.32 166 409 C163.1679225 409.96218017 160.33443873 410.9198208 157.5 411.875 C156.70851563 412.14441406 155.91703125 412.41382813 155.1015625 412.69140625 C147.77547606 415.15345169 140.84367736 417.14347412 133.0625 417.5 C129.10108919 417.72612704 125.49456273 418.01398948 121.6875 419.125 C113.13615879 421.28685592 102.9938009 419.48447395 94.375 418.125 C90.7024362 417.69256501 88.99401817 418.26836439 86 420.4375 C85.01 421.283125 84.02 422.12875 83 423 C82.34 423 81.68 423 81 423 C81 423.66 81 424.32 81 425 C80.030625 425.45375 79.06125 425.9075 78.0625 426.375 C74.92920418 427.65786221 74.92920418 427.65786221 74 430 C72.21801498 430.97466067 70.39795394 431.88020527 68.5625 432.75 C64.64557549 434.60887943 60.97869727 436.60785878 57.29296875 438.89453125 C51.97732855 442.11616163 46.49590543 444.5868592 40.75 446.9375 C39.18572266 447.57981567 39.18572266 447.57981567 37.58984375 448.23510742 C18.47888509 455.94910608 -3.17061107 464.0295872 -24 464 C-25.00256836 464.32444092 -26.00513672 464.64888184 -27.03808594 464.9831543 C-31.71580328 466.36531449 -36.29532811 466.28709414 -41.140625 466.265625 C-42.10345398 466.26753845 -43.06628296 466.2694519 -44.05828857 466.27142334 C-46.08882917 466.27277942 -48.1193786 466.26912346 -50.14990234 466.26074219 C-53.22643988 466.25008164 -56.30238727 466.26063303 -59.37890625 466.2734375 C-61.36198044 466.27211489 -63.34505426 466.2695504 -65.328125 466.265625 C-66.23371155 466.26967346 -67.1392981 466.27372192 -68.07232666 466.27789307 C-73.72908983 466.23725297 -79.02227347 465.59580964 -84.56610107 464.46478271 C-86.76464548 464.04494382 -88.89518706 463.78943451 -91.125 463.625 C-104.04696345 462.28903943 -116.71089344 458.02832286 -129 454 C-129.88558594 453.7215625 -130.77117187 453.443125 -131.68359375 453.15625 C-136.17036173 451.7254609 -140.42059745 449.98909081 -144.69921875 448.0234375 C-147.02289225 446.98981703 -149.37143664 446.08666612 -151.75 445.1875 C-159.90153216 441.97281126 -167.52347179 437.54138422 -175 433 C-176.06476563 432.360625 -177.12953125 431.72125 -178.2265625 431.0625 C-179.34804687 430.381875 -180.46953125 429.70125 -181.625 429 C-182.75164062 428.319375 -183.87828125 427.63875 -185.0390625 426.9375 C-187.40559019 425.38895418 -189.05349653 423.98189444 -191 422 C-191.99 421.67 -192.98 421.34 -194 421 C-194 420.34 -194 419.68 -194 419 C-194.66 419 -195.32 419 -196 419 C-196.33 418.34 -196.66 417.68 -197 417 C-198.65051288 415.88365848 -198.65051288 415.88365848 -200.5625 414.875 C-201.696875 414.25625 -202.83125 413.6375 -204 413 C-204 412.01 -204 411.02 -204 410 C-204.99 410.33 -205.98 410.66 -207 411 C-208.5 409.625 -208.5 409.625 -210 408 C-210 407.34 -210 406.68 -210 406 C-210.66 406 -211.32 406 -212 406 C-212.33 405.34 -212.66 404.68 -213 404 C-213.99 403.67 -214.98 403.34 -216 403 C-217.87658163 401.02105938 -219.55960294 398.9268034 -221.28125 396.8125 C-222.96771124 394.74921094 -222.96771124 394.74921094 -226 394 C-226.97896396 392.270497 -227.95394954 390.53816908 -228.8828125 388.78125 C-230.46052824 386.2657312 -232.64707817 384.76469137 -235 383 C-235 382.34 -235 381.68 -235 381 C-235.66 381 -236.32 381 -237 381 C-237.94401042 379.2421875 -238.88802083 377.484375 -239.83203125 375.7265625 C-241.04763493 373.69497635 -241.04763493 373.69497635 -244 372 C-245.63976571 369.03580814 -246.92881534 366.21355398 -248 363 C-248.66 363 -249.32 363 -250 363 C-250.26554687 362.36191406 -250.53109375 361.72382813 -250.8046875 361.06640625 C-251.15789062 360.24011719 -251.51109375 359.41382813 -251.875 358.5625 C-252.22304687 357.73878906 -252.57109375 356.91507812 -252.9296875 356.06640625 C-253.8244937 353.84253285 -253.8244937 353.84253285 -256 353 C-256.495 351.515 -256.495 351.515 -257 350 C-257.66 349.67 -258.32 349.34 -259 349 C-260.45714435 345.91085397 -261.77379612 342.95508303 -262.5625 339.625 C-262.706875 339.08875 -262.85125 338.5525 -263 338 C-263.66 337.67 -264.32 337.34 -265 337 C-265.86621094 335.38037109 -265.86621094 335.38037109 -266.734375 333.2734375 C-267.05833252 332.49629395 -267.38229004 331.71915039 -267.71606445 330.91845703 C-268.05726318 330.07911621 -268.39846191 329.23977539 -268.75 328.375 C-269.10344482 327.51632324 -269.45688965 326.65764648 -269.82104492 325.77294922 C-270.54229123 324.01714029 -271.26063322 322.26013554 -271.97607422 320.50195312 C-272.88533609 318.2801802 -273.81424938 316.068412 -274.75390625 313.859375 C-277.62755255 307.0262289 -279.83831088 300.32610777 -281.3515625 293.0625 C-281.98193694 290.08530989 -282.74061914 287.17947635 -283.5625 284.25 C-285.82660461 276.02335814 -287.25851922 268.37332128 -287.75390625 259.8203125 C-287.89660639 256.92257375 -287.89660639 256.92257375 -289 254 C-289.09637028 252.49938178 -289.1381062 250.9949034 -289.14526367 249.49121094 C-289.15164352 248.57885681 -289.15802338 247.66650269 -289.16459656 246.72650146 C-289.16626579 245.24539886 -289.16626579 245.24539886 -289.16796875 243.734375 C-289.17129715 242.70878479 -289.17462555 241.68319458 -289.17805481 240.62652588 C-289.18312406 238.44763639 -289.18546314 236.26873913 -289.18530273 234.08984375 C-289.18746411 230.8045507 -289.20554948 227.51960748 -289.22460938 224.234375 C-289.25543454 212.96828598 -288.98068159 202.11816742 -287 191 C-286.84861572 190.08976074 -286.69723145 189.17952148 -286.54125977 188.24169922 C-286.12574938 185.83988625 -285.66962876 183.45175499 -285.1875 181.0625 C-285.0215332 180.22984619 -284.85556641 179.39719238 -284.68457031 178.53930664 C-283.36889835 172.2041651 -281.64204451 166.06530214 -279.57495117 159.93579102 C-278.63280373 157.13894107 -278 154.97909568 -278 152 C-277.34 152 -276.68 152 -276 152 C-275.9175 151.236875 -275.835 150.47375 -275.75 149.6875 C-274.71852562 144.61608432 -273.13145647 139.72137716 -271 135 C-270.34 134.67 -269.68 134.34 -269 134 C-268.30914155 132.29607601 -267.69580795 130.56030452 -267.125 128.8125 C-265.57139502 124.34732422 -263.75029323 120.86759986 -261 117 C-260.37662131 115.7804644 -259.77392431 114.55022961 -259.1875 113.3125 C-255.01265813 104.76863757 -249.38496154 97.00508806 -243.93286133 89.23950195 C-241.80939737 86.21573396 -241.80939737 86.21573396 -240 83 C-239.34 83 -238.68 83 -238 83 C-237.731875 82.360625 -237.46375 81.72125 -237.1875 81.0625 C-236 79 -236 79 -233 78 C-231.89163577 76.11683841 -231.89163577 76.11683841 -231 74 C-230.01 72.515 -230.01 72.515 -229 71 C-228.34 71 -227.68 71 -227 71 C-226.731875 70.195625 -226.46375 69.39125 -226.1875 68.5625 C-225.795625 67.716875 -225.40375 66.87125 -225 66 C-224.01 65.67 -223.02 65.34 -222 65 C-221.505 63.515 -221.505 63.515 -221 62 C-219.125 59.8125 -219.125 59.8125 -217 58 C-216.01 58 -215.02 58 -214 58 C-213.773125 57.443125 -213.54625 56.88625 -213.3125 56.3125 C-210.88126923 52.02890292 -207.10175395 48.68735604 -203 46 C-202.34 46 -201.68 46 -201 46 C-200.505 45.01 -200.505 45.01 -200 44 C-195.92841272 40.49919598 -191.99098987 37.96614753 -187 36 C-186.67 35.01 -186.34 34.02 -186 33 C-183.890625 31.71875 -183.890625 31.71875 -181.25 30.5 C-178.39755123 29.15119923 -175.70437356 27.82139236 -173 26.1875 C-171 25 -171 25 -169 25 C-168.67 24.34 -168.34 23.68 -168 23 C-166.30475384 21.96321402 -164.5680315 20.99357136 -162.8125 20.0625 C-161.30816406 19.26392578 -161.30816406 19.26392578 -159.7734375 18.44921875 C-158.85820312 17.97097656 -157.94296875 17.49273438 -157 17 C-155.989375 16.46375 -154.97875 15.9275 -153.9375 15.375 C-150.61162127 13.8182057 -147.24480077 12.43995591 -143.82421875 11.10546875 C-141.86039285 10.33677894 -139.90511909 9.54602499 -137.95703125 8.73828125 C-130.89017138 5.87194223 -124.19772363 4.02117726 -116.703125 2.67578125 C-115.36507812 2.34126953 -115.36507812 2.34126953 -114 2 C-113.67 1.34 -113.34 0.68 -113 0 C-112.11183594 0.02707031 -111.22367188 0.05414062 -110.30859375 0.08203125 C-107.22095756 0.00547829 -104.99566862 -0.43119356 -102.0625 -1.3125 C-71.27248524 -9.14046985 -30.33677945 -10.69913204 0 0 Z M-128 29 C-129.26993283 32.8097985 -128.50034437 33.71630391 -126.875 37.3125 C-120.58622689 51.87505002 -115.4019234 65.14456344 -120 81 C-121.625 83.9375 -121.625 83.9375 -123 86 C-123 87.32 -123 88.64 -123 90 C-123.99 90.495 -123.99 90.495 -125 91 C-127.89675338 96.79350676 -125.48792291 103.78011289 -123.625 109.5625 C-123.17951852 111.00124977 -122.73420416 112.4400513 -122.2890625 113.87890625 C-121.99056396 114.81585327 -121.99056396 114.81585327 -121.68603516 115.77172852 C-121.12352984 117.5987698 -120.59276196 119.43555424 -120.07104492 121.2746582 C-118.32584465 127.34486812 -116.38223047 133.34847566 -114.42407227 139.35253906 C-113.93248072 140.86918942 -113.44680943 142.38777133 -112.96704102 143.90820312 C-112.26724823 146.12345703 -111.54784666 148.33149632 -110.82421875 150.5390625 C-110.61568771 151.21313141 -110.40715668 151.88720032 -110.19230652 152.58169556 C-108.65477068 157.1764893 -106.60318605 159.81092042 -103 163 C-102.13375 163.886875 -101.2675 164.77375 -100.375 165.6875 C-98.02914245 168.11275676 -98.02914245 168.11275676 -95 170 C-92.64342446 171.82634605 -90.38331514 173.602488 -88.3125 175.75 C-87.06070402 177.22988506 -87.06070402 177.22988506 -85 177 C-84.67 177.99 -84.34 178.98 -84 180 C-82.78894565 181.06674648 -81.53179107 182.08188165 -80.25 183.0625 C-72.93545096 189.30215115 -70.08871917 197.64290014 -69 207 C-68.85691406 208.16789062 -68.85691406 208.16789062 -68.7109375 209.359375 C-68.23498315 217.02474502 -70.71723848 224.14075619 -74 231 C-76.109375 233.2578125 -76.109375 233.2578125 -78 235 C-78.33 235.825 -78.66 236.65 -79 237.5 C-80 240 -80 240 -81.9375 241.875 C-84.58203002 244.59966729 -85.57773692 247.50899062 -87 251 C-87.66 251.66 -88.32 252.32 -89 253 C-89.95133955 254.70585022 -90.9021317 256.41201352 -91.84765625 258.12109375 C-93.0116856 260.01905347 -94.29273481 261.63231039 -95.75 263.3125 C-98.21397889 265.6714161 -98.21397889 265.6714161 -98 268 C-98.66 268 -99.32 268 -100 268 C-100.061875 268.556875 -100.12375 269.11375 -100.1875 269.6875 C-102.53079628 276.35688172 -110.06491209 279.97301372 -116 283 C-129.63613661 288.60862539 -147.35568392 283.87362034 -160.92578125 279.890625 C-164.01343274 278.90142083 -164.01343274 278.90142083 -167.375 278.625 C-171.29586169 277.94898936 -174.32788735 276.65686437 -177.88671875 274.9375 C-179.9648186 273.92285822 -179.9648186 273.92285822 -182.20703125 273.5625 C-182.79871094 273.376875 -183.39039063 273.19125 -184 273 C-184.33 272.01 -184.66 271.02 -185 270 C-186.15372649 268.88020664 -187.30849889 267.76146909 -188.46875 266.6484375 C-193.24107196 261.51088682 -197.14074494 255.39127602 -200 249 C-200.66 249 -201.32 249 -202 249 C-202.33 247.68 -202.66 246.36 -203 245 C-203.66 245 -204.32 245 -205 245 C-205.26296875 244.30519531 -205.5259375 243.61039063 -205.796875 242.89453125 C-211.03575806 230.29059507 -216.80710105 224.74282711 -229 219 C-230.60488281 218.15308594 -230.60488281 218.15308594 -232.2421875 217.2890625 C-234.94559209 215.78827632 -234.94559209 215.78827632 -238 216 C-238 215.34 -238 214.68 -238 214 C-239.4540625 213.443125 -239.4540625 213.443125 -240.9375 212.875 C-247.36485803 210.09984745 -254.08471585 206.64036945 -257 200 C-257.27457031 199.38382813 -257.54914063 198.76765625 -257.83203125 198.1328125 C-258.57969182 196.43265284 -259.29283586 194.71739863 -260 193 C-260.66 193 -261.32 193 -262 193 C-262.33 191.35 -262.66 189.7 -263 188 C-263.33 188 -263.66 188 -264 188 C-264.50505263 190.89503383 -265.0042022 193.79087953 -265.5 196.6875 C-265.64308594 197.50412109 -265.78617187 198.32074219 -265.93359375 199.16210938 C-266.61613222 203.17608562 -267.057159 206.92027619 -267 211 C-267.16089111 211.72147217 -267.32178223 212.44294434 -267.48754883 213.1862793 C-268.48052424 218.63841919 -268.1859088 224.23366166 -268.18530273 229.76220703 C-268.187466 231.96537283 -268.20557899 234.16801793 -268.22460938 236.37109375 C-268.25927647 245.10978736 -267.58647914 253.38046194 -266 262 C-265.79413109 263.33492888 -265.59363752 264.67071721 -265.40234375 266.0078125 C-265.24894531 267.03648437 -265.09554688 268.06515625 -264.9375 269.125 C-264.78152344 270.17945313 -264.62554687 271.23390625 -264.46484375 272.3203125 C-264.05326003 275.08926763 -264.05326003 275.08926763 -263 278 C-262.36645959 280.53986923 -261.74281606 283.08132633 -261.125 285.625 C-259.67516928 291.52541199 -258.04544059 297.27276636 -256 303 C-255.34 303 -254.68 303 -254 303 C-253.938125 303.928125 -253.87625 304.85625 -253.8125 305.8125 C-253.02645504 311.30374369 -250.42153806 316.06824783 -248 321 C-247.39091797 322.25876953 -247.39091797 322.25876953 -246.76953125 323.54296875 C-243.69776498 329.79585218 -240.37201556 335.90487909 -237 342 C-236.34 342 -235.68 342 -235 342 C-234.90589844 342.71542969 -234.81179687 343.43085938 -234.71484375 344.16796875 C-233.88146767 347.4695953 -232.53352459 349.54650916 -230.5625 352.3125 C-229.63630859 353.63701172 -229.63630859 353.63701172 -228.69140625 354.98828125 C-227.85416016 355.98408203 -227.85416016 355.98408203 -227 357 C-226.34 357 -225.68 357 -225 357 C-224.67 358.32 -224.34 359.64 -224 361 C-223.34 361 -222.68 361 -222 361 C-221.75121094 361.55300781 -221.50242188 362.10601562 -221.24609375 362.67578125 C-219.76982341 365.42932625 -218.00376915 367.74012716 -216.0625 370.1875 C-215.37285156 371.06792969 -214.68320313 371.94835937 -213.97265625 372.85546875 C-212.10390697 375.2343257 -212.10390697 375.2343257 -209 376 C-208.505 377.485 -208.505 377.485 -208 379 C-206.3777546 380.70993434 -204.70586575 382.37347684 -203 384 C-201.9171875 385.1446875 -201.9171875 385.1446875 -200.8125 386.3125 C-199.16877727 388.22713951 -199.16877727 388.22713951 -197 388 C-196.505 389.485 -196.505 389.485 -196 391 C-191.58529236 394.98400446 -186.77501464 398.46223612 -182 402 C-181.30132812 402.55429687 -180.60265625 403.10859375 -179.8828125 403.6796875 C-178.11035079 405.19138206 -178.11035079 405.19138206 -176 405 C-176 405.66 -176 406.32 -176 407 C-174.35 407.33 -172.7 407.66 -171 408 C-171 408.66 -171 409.32 -171 410 C-170.21625 410.37125 -169.4325 410.7425 -168.625 411.125 C-165.63874376 412.60397525 -162.83423946 414.31143665 -160 416.0625 C-156.41601361 418.24429232 -153.08883187 419.92399161 -149 421 C-148.34 419.88625 -147.68 418.7725 -147 417.625 C-146.62875 416.99851562 -146.2575 416.37203125 -145.875 415.7265625 C-144.84931652 414.02527333 -144.84931652 414.02527333 -145 412 C-144.34 412 -143.68 412 -143 412 C-140.62327903 409.74836961 -138.38647558 407.47235904 -136.3125 404.9375 C-127.88038508 397.87275507 -116.75323643 397.82602912 -106.3125 398.04296875 C-104.4609481 398.06534822 -102.60938486 398.08680457 -100.7578125 398.10742188 C-97.87435648 398.14450892 -94.99149153 398.18767457 -92.10839844 398.24682617 C-89.30134702 398.30158041 -86.49495392 398.33046937 -83.6875 398.35546875 C-82.83518799 398.37925095 -81.98287598 398.40303314 -81.10473633 398.42753601 C-75.02955312 398.45386591 -71.25254994 397.06033566 -66 394 C-66 393.34 -66 392.68 -66 392 C-65.4225 391.773125 -64.845 391.54625 -64.25 391.3125 C-61.83185189 390.09364769 -61.83185189 390.09364769 -60.18359375 387.6171875 C-54.0177231 380.22696686 -44.44857244 378.20994452 -35.28491211 377.27368164 C-30.0118953 376.87686398 -25.2004969 377.23781806 -20.01953125 378.37890625 C-16.53962809 379.09469487 -13.09976259 379.36593067 -9.5625 379.6875 C5.52259474 381.65243029 15.59260222 390.89126432 25 402 C26.43064527 403.67255438 27.8681539 405.3392627 29.3125 407 C29.96863281 407.763125 30.62476563 408.52625 31.30078125 409.3125 C32.8373854 411.23488528 32.8373854 411.23488528 35 411 C35.061875 411.8353125 35.061875 411.8353125 35.125 412.6875 C36.46624678 416.23222364 39.00924722 417.78684295 42 420 C42.99 420.33 43.98 420.66 45 421 C45 420.34 45 419.68 45 419 C47.64 418.34 50.28 417.68 53 417 C53 416.34 53 415.68 53 415 C54.1446875 414.5978125 54.1446875 414.5978125 55.3125 414.1875 C57.87380884 413.05575888 59.19692938 412.08776599 61 410 C58.20915724 407.65569208 55.43595096 406.3159348 52.0703125 404.9609375 C48.60973279 403.35470616 45.44634536 401.25690674 42.234375 399.20703125 C39.9833456 397.76235409 39.9833456 397.76235409 37 398 C37 397.34 37 396.68 37 396 C35.1470277 394.5839225 35.1470277 394.5839225 32.8125 393.1875 C29.06290501 390.77369822 26.07912295 388.24556203 23 385 C21.96794957 384.13423903 20.92590252 383.28027757 19.875 382.4375 C17.42413708 380.35959448 15.83278641 378.58256266 14 376 C13.319375 375.319375 12.63875 374.63875 11.9375 373.9375 C10 372 10 372 8 369 C6.71262952 367.23538002 5.41931931 365.47539943 4.12109375 363.71875 C3 362 3 362 2 359 C1.34 359 0.68 359 0 359 C-0.268125 358.29875 -0.53625 357.5975 -0.8125 356.875 C-1.95488429 354.01160653 -1.95488429 354.01160653 -3.3125 351.375 C-5.19712093 347.60575815 -6.9638529 343.7997723 -8.67578125 339.94921875 C-9.51416968 338.08201147 -10.38311718 336.22797836 -11.29296875 334.39453125 C-21.82948405 311.92743863 -21.92995669 283.2006025 -16.71875 259.4375 C-15.94978779 255.97482237 -15.94978779 255.97482237 -15.515625 252.3203125 C-15.06664987 249.4291848 -14.52717025 247.46074633 -13.25 244.875 C-11.50430701 241.18267094 -10.033271 237.45913136 -8.625 233.625 C-5.20941952 224.65648192 -0.74923347 216.66564462 5 209 C7.10232344 206.1315587 7.10232344 206.1315587 8 203 C8.99 202.67 9.98 202.34 11 202 C12.03464111 200.35461386 13.03068759 198.68469915 14 197 C18.79027067 191.39548907 24.42929857 186.69350297 30.1875 182.125 C30.76927002 181.66077637 31.35104004 181.19655273 31.95043945 180.71826172 C35.45938606 177.98991233 38.93555063 175.86261565 43 174 C43 173.34 43 172.68 43 172 C43.6496875 171.74992188 44.299375 171.49984375 44.96875 171.2421875 C47.33311544 170.27328517 49.64799527 169.26080939 51.96875 168.1953125 C60.83106651 164.13370295 69.54103998 160.47591584 79 158 C80.06605469 157.71382812 81.13210938 157.42765625 82.23046875 157.1328125 C101.68990676 152.25051622 124.44095064 152.12540607 144.00390625 156.6953125 C146.06740417 157.20673824 146.06740417 157.20673824 148 156 C143.65023213 145.81969222 139.04085942 135.8571261 134 126 C132.99816219 124.00091996 131.99759543 122.00120048 131 120 C130.34 120 129.68 120 129 120 C128.9175 119.484375 128.835 118.96875 128.75 118.4375 C127.67859775 114.95544268 125.86476395 112.12799115 124 109 C123.34 109 122.68 109 122 109 C121.5978125 107.63875 121.5978125 107.63875 121.1875 106.25 C120.09868368 103.27008166 119.13608899 101.31409641 117 99 C116.34 99 115.68 99 115 99 C114.773125 98.46375 114.54625 97.9275 114.3125 97.375 C112.04324569 93.2687303 108.96424784 89.95781952 105.65625 86.671875 C102.00825265 83.00241884 98.62685148 79.11173399 95.20703125 75.23046875 C94.11455078 74.12638672 94.11455078 74.12638672 93 73 C92.34 73 91.68 73 91 73 C86.06601486 77.93398514 83.72942259 83.65837128 81 90 C78.63693572 95.31914088 76.36114875 98.9924579 72 103 C71.67 103.66 71.34 104.32 71 105 C66.52498497 107.0976633 61.69659667 108.47718695 57 110 C55.87271484 110.39058594 55.87271484 110.39058594 54.72265625 110.7890625 C44.79848578 114.05858954 33.06351747 117.00352977 23 113 C21.30792999 112.0436126 19.63183107 111.05589069 18 110 C17.01 110 16.02 110 15 110 C14.67 109.34 14.34 108.68 14 108 C13.071875 107.54625 12.14375 107.0925 11.1875 106.625 C8.00650505 105.0033163 6.49269171 103.49269171 4 101 C2.59559273 100.06465918 1.17717529 99.15021826 -0.25 98.25 C-14.71296353 88.7668707 -19.9805527 74.28933906 -24 58 C-26.21958113 44.7770244 -21.67352958 34.35217946 -15.07421875 23.21484375 C-14.71972656 22.48394531 -14.36523438 21.75304687 -14 21 C-14.33 20.34 -14.66 19.68 -15 19 C-47.89655013 9.63349472 -96.67132242 14.58880831 -128 29 Z M8 26 C7.52949219 26.95261719 7.05898438 27.90523437 6.57421875 28.88671875 C5.94542084 30.15369961 5.31650852 31.42062369 4.6875 32.6875 C4.37876953 33.31333984 4.07003906 33.93917969 3.75195312 34.58398438 C2.3887001 37.32484045 1.02328481 39.96482739 -0.66796875 42.51953125 C-3.32863969 47.4741531 -3.32363059 51.57310253 -1.7421875 56.84765625 C-1.13582885 58.59159646 -0.5129941 60.32988296 0.125 62.0625 C0.42148437 62.93455078 0.71796875 63.80660156 1.0234375 64.70507812 C2.93052361 70.04249498 4.97104989 73.97765473 9 78 C9.66 78 10.32 78 11 78 C11 78.66 11 79.32 11 80 C12.11375 80.66 13.2275 81.32 14.375 82 C15.00148438 82.37125 15.62796875 82.7425 16.2734375 83.125 C17.97472667 84.15068348 17.97472667 84.15068348 20 84 C20.33 84.66 20.66 85.32 21 86 C22.521857 87.08048981 24.09298047 88.09244103 25.6875 89.0625 C26.53699219 89.58972656 27.38648438 90.11695312 28.26171875 90.66015625 C34.320316 93.62463394 38.89378168 92.89270353 45.125 91.1875 C45.82753906 91.00896484 46.53007812 90.83042969 47.25390625 90.64648438 C53.83668144 88.92301677 58.38522778 87.03831269 62 81 C62.72481084 77.34725531 62.72481084 77.34725531 63 74 C63.99 73.01 63.99 73.01 65 72 C65.4125 71.13375 65.825 70.2675 66.25 69.375 C68.40702742 65.21501855 71.11573816 61.6776672 74 58 C68.26311562 53.67857121 62.58590277 49.57424189 56.234375 46.20703125 C53.8287803 44.90750544 51.51503044 43.4968221 49.1875 42.0625 C41.17678445 37.22866231 32.8717984 32.99917071 24 30 C23.26007813 29.73316406 22.52015625 29.46632812 21.7578125 29.19140625 C17.16086656 27.57396231 12.85614127 26.62394058 8 26 Z M-151 39 C-152.3303125 39.928125 -152.3303125 39.928125 -153.6875 40.875 C-157 43 -157 43 -159.4375 43.9609375 C-161.98941671 44.9957086 -164.03974874 46.20436295 -166.3125 47.75 C-167.0859375 48.2759375 -167.859375 48.801875 -168.65625 49.34375 C-171.55362179 51.39122606 -174.37833358 53.5214677 -177.17578125 55.703125 C-179.04320562 57.03071577 -180.9275877 58.03012934 -183 59 C-183 59.66 -183 60.32 -183 61 C-183.763125 61.268125 -184.52625 61.53625 -185.3125 61.8125 C-188.00995593 63.00439913 -189.03939027 63.88254149 -191 66 C-192.05705274 66.86089863 -193.12005085 67.71452638 -194.1875 68.5625 C-195.5796875 69.7690625 -195.5796875 69.7690625 -197 71 C-197 71.66 -197 72.32 -197 73 C-197.99 73 -198.98 73 -200 73 C-200 73.66 -200 74.32 -200 75 C-200.58910156 75.25265625 -201.17820313 75.5053125 -201.78515625 75.765625 C-204.25966493 77.14471626 -205.62190075 78.58637595 -207.4375 80.75 C-208.34435547 81.81927734 -208.34435547 81.81927734 -209.26953125 82.91015625 C-210.72421722 84.66694404 -212.17519057 86.42669045 -213.625 88.1875 C-216 91 -216 91 -218.3515625 93.296875 C-221.07488257 96.07642882 -223.40917963 98.95580719 -225.75 102.0625 C-226.52859375 103.08472656 -227.3071875 104.10695313 -228.109375 105.16015625 C-229.79124573 107.68643729 -230.29396447 109.1693205 -231 112 C-232.485 112.495 -232.485 112.495 -234 113 C-234.68346682 114.65984798 -235.34588315 116.32836805 -236 118 C-237.19160411 119.62190559 -238.38354258 121.24356802 -239.578125 122.86328125 C-242.53497924 127.30668584 -244.71709941 132.18658261 -247 137 C-247.44601563 137.93457031 -247.89203125 138.86914062 -248.3515625 139.83203125 C-254.26381148 150.63529339 -254.26381148 150.63529339 -255 162 C-253.36739286 163.37482707 -251.69774938 164.70647667 -250 166 C-247.24240417 168.37994058 -246.00820439 170.79750991 -244.5625 174.125 C-244.12679687 175.09953125 -243.69109375 176.0740625 -243.2421875 177.078125 C-242.47479478 178.88318712 -241.74288025 180.70437847 -241.0703125 182.546875 C-239.04749574 187.8813829 -236.87812011 190.38617721 -231.90234375 193.22265625 C-229.87965695 194.18913137 -229.87965695 194.18913137 -227 194 C-227 194.66 -227 195.32 -227 196 C-224.94072044 196.98592155 -222.87743312 197.96347494 -220.8125 198.9375 C-219.66394531 199.48277344 -218.51539063 200.02804688 -217.33203125 200.58984375 C-214.48533264 201.79460131 -212.03972155 202.54776271 -209 203 C-209 203.66 -209 204.32 -209 205 C-207.35 205.33 -205.7 205.66 -204 206 C-203.67 206.99 -203.34 207.98 -203 209 C-201.53702412 210.18815132 -200.07288086 211.37493212 -198.59960938 212.55029297 C-195.89855447 214.99822704 -194.13315293 217.96874876 -192.25 221.0625 C-191.86457031 221.67416016 -191.47914063 222.28582031 -191.08203125 222.91601562 C-189.23327736 225.87466155 -187.4815696 228.83984356 -186 232 C-185.34 232 -184.68 232 -184 232 C-183.731875 232.70125 -183.46375 233.4025 -183.1875 234.125 C-181.01785676 239.37782048 -178.57695054 243.58842766 -175 248 C-174.67 248.99 -174.34 249.98 -174 251 C-173.34 251 -172.68 251 -172 251 C-171.67 251.99 -171.34 252.98 -171 254 C-159.90887951 260.32747221 -138.74417206 264.38523609 -126 263 C-122.6330885 261.25651307 -122.6330885 261.25651307 -120 259 C-120 258.34 -120 257.68 -120 257 C-119.34 257 -118.68 257 -118 257 C-115.46300661 253.7230502 -113.42851737 250.10910379 -111.9375 246.25 C-111 244 -111 244 -109.24609375 242.33984375 C-106.32023105 239.29185809 -104.30233716 235.91685875 -102.125 232.3125 C-99.36254112 227.76827046 -96.57989597 223.37530252 -93.375 219.125 C-90.74756225 215.22116494 -90.22531914 211.96125186 -90.55078125 207.2890625 C-91.56109312 202.14086461 -94.35727173 199.32404615 -98.5 196.4375 C-99.10328125 196.03917969 -99.7065625 195.64085937 -100.328125 195.23046875 C-102.66723936 193.5089243 -104.2268507 191.27976338 -106 189 C-106.99 188.67 -107.98 188.34 -109 188 C-109.66 187.01 -110.32 186.02 -111 185 C-111.66 185 -112.32 185 -113 185 C-113.185625 184.443125 -113.37125 183.88625 -113.5625 183.3125 C-115.06341457 180.89798525 -116.17960411 180.05818684 -118.5 178.5 C-121.34593943 176.58310691 -122.70505912 175.23735221 -124 172 C-124.474375 171.566875 -124.94875 171.13375 -125.4375 170.6875 C-130.15993165 165.58727382 -131.70910674 156.97416139 -133.75 150.5 C-134.26844482 148.86840942 -134.26844482 148.86840942 -134.79736328 147.20385742 C-137.50991292 138.63475093 -140.14829712 130.04351835 -142.74121094 121.4375 C-143.83388663 117.81186302 -144.93116221 114.20207974 -146.15234375 110.6171875 C-149.96189964 98.85496426 -147.54724457 88.05475508 -142.43945312 77.18945312 C-139.7213749 71.20743004 -138.91446667 66.43900517 -140.953125 59.98046875 C-141.38109375 59.05878906 -141.8090625 58.13710937 -142.25 57.1875 C-144.4802483 52.2215647 -146.37111903 47.24079913 -148.10546875 42.08203125 C-148.80931044 39.82649027 -148.80931044 39.82649027 -151 39 Z M-269 137 C-268 139 -268 139 -268 139 Z M160 137 C161 139 161 139 161 139 Z M-273 147 C-272 149 -272 149 -272 149 Z M74 182 C74 182.66 74 183.32 74 184 C72.7625 184.12375 72.7625 184.12375 71.5 184.25 C63.77535595 185.90528087 56.4740375 190.58301535 50 195 C49.67 195.66 49.34 196.32 49 197 C47.35636866 197.72159424 45.68949614 198.39351421 44 199 C44 199.66 44 200.32 44 201 C43.01 201.33 42.02 201.66 41 202 C41 202.66 41 203.32 41 204 C40.443125 204.226875 39.88625 204.45375 39.3125 204.6875 C36.36100798 206.36267115 34.27923704 208.53384141 32 211 C31.38898438 211.64066406 30.77796875 212.28132813 30.1484375 212.94140625 C21.85079361 221.89581346 16.19226454 232.01208849 11 243 C10.443125 244.155 9.88625 245.31 9.3125 246.5 C2.05226858 265.86061712 0.10798906 286.74712827 4 307 C4.12044678 307.73250977 4.24089355 308.46501953 4.36499023 309.21972656 C5.54331687 315.90285196 7.6923506 321.8799497 10.3125 328.125 C10.69083984 329.06214844 11.06917969 329.99929688 11.45898438 330.96484375 C14.20190672 337.60169478 17.41411744 343.58294091 21.75 349.3125 C23 351 23 351 24 354 C24.99 354 25.98 354 27 354 C29 358 29 358 29.8203125 359.9140625 C31.22046784 362.38983386 32.82126141 363.80671449 35 365.625 C37.07660336 367.3733168 39.07962765 369.07962765 41 371 C42.27987267 371.9945331 43.57302935 372.97207648 44.875 373.9375 C45.55304688 374.44152344 46.23109375 374.94554687 46.9296875 375.46484375 C47.61289062 375.97144531 48.29609375 376.47804688 49 377 C49.68320312 377.55816406 50.36640625 378.11632812 51.0703125 378.69140625 C53.0252301 380.28062779 53.0252301 380.28062779 56 380 C56.33 380.99 56.66 381.98 57 383 C58.97984481 383.72433347 60.98583438 384.37743972 63 385 C64.26113628 385.60221283 65.51073598 386.22897393 66.75 386.875 C78.96025469 393.0839953 91.35685338 396.10864775 105 397 C106.15242188 397.11472656 107.30484375 397.22945312 108.4921875 397.34765625 C122.32635631 398.59877131 135.96609885 396.95056186 149 392 C149.33 391.34 149.66 390.68 150 390 C151.99338221 389.62913819 153.99512332 389.30262289 156 389 C158.01089078 388.36694179 160.01463373 387.70905938 162 387 C162 386.34 162 385.68 162 385 C162.70898438 384.90589844 163.41796875 384.81179688 164.1484375 384.71484375 C167.5004091 383.87455498 169.74942313 382.4676687 172.625 380.5625 C174.03652344 379.63630859 174.03652344 379.63630859 175.4765625 378.69140625 C176.72566406 377.85416016 176.72566406 377.85416016 178 377 C178.99 376.34 179.98 375.68 181 375 C181 374.34 181 373.68 181 373 C181.556875 372.731875 182.11375 372.46375 182.6875 372.1875 C183.8321875 371.5996875 183.8321875 371.5996875 185 371 C186.2065625 370.38125 186.2065625 370.38125 187.4375 369.75 C190.60949085 367.58376234 192.61444199 364.99723955 195 362 C195.763125 361.2575 196.52625 360.515 197.3125 359.75 C199.23137852 358.16523212 199.23137852 358.16523212 199 356 C199.66 356 200.32 356 201 356 C202.36637653 354.28198718 202.36637653 354.28198718 203.625 352.125 C204.29402344 351.04605469 204.29402344 351.04605469 204.9765625 349.9453125 C206.15519998 348.07135238 206.15519998 348.07135238 206 346 C206.99 345.67 207.98 345.34 209 345 C209.70905938 343.01463373 210.36694179 341.01089078 211 339 C211.95026195 337.36161733 212.90125909 335.72364589 213.859375 334.08984375 C218.74625927 325.13613455 221.10108382 315.95647944 223 306 C223.25450928 305.04383789 223.25450928 305.04383789 223.51416016 304.06835938 C226.85626928 289.84004356 224.90501258 274.30685849 221.6875 260.3125 C221.48688965 259.43287598 221.2862793 258.55325195 221.07958984 257.64697266 C219.65017005 251.75988897 217.64469559 246.44426957 215 241 C214.47277344 239.90171875 213.94554687 238.8034375 213.40234375 237.671875 C212.91894531 236.70765625 212.43554688 235.7434375 211.9375 234.75 C211.45152344 233.77546875 210.96554687 232.8009375 210.46484375 231.796875 C209.06262628 229.11957444 207.68872041 226.50790999 206 224 C205.34 224 204.68 224 204 224 C203.7525 223.278125 203.505 222.55625 203.25 221.8125 C201.51480122 217.90830274 199.06857062 215.06857062 196.0625 212.0625 C194 210 194 210 191.8125 207.1875 C188.49525723 203.13424399 184.35114334 199.88936434 180 197 C179.34 197 178.68 197 178 197 C177.01 195.515 177.01 195.515 176 194 C175.01 193.67 174.02 193.34 173 193 C172.54496094 192.53335938 172.08992187 192.06671875 171.62109375 191.5859375 C168.22776098 188.26619508 163.30606586 186.85324353 159 185 C158.04351562 184.56171875 157.08703125 184.1234375 156.1015625 183.671875 C148.57381118 180.32172294 141.09669345 178.45073926 133 177 C132.06575195 176.82726562 131.13150391 176.65453125 130.16894531 176.4765625 C111.42806738 173.65821167 91.84951302 175.95004487 74 182 Z M242 267 C243 269 243 269 243 269 Z M226 349 C227 351 227 351 227 351 Z M224 353 C225 355 225 355 225 355 Z M214 374 C212.6962889 375.32512878 212.6962889 375.32512878 211.375 377.0625 C207.97346238 381.18812731 204.09543926 384.58020428 200 388 C200.99 389.485 200.99 389.485 202 391 C202.66 391 203.32 391 204 391 C204.226875 391.53625 204.45375 392.0725 204.6875 392.625 C206.45570089 395.82460161 208.53670203 398.29037223 211 401 C211.66 401 212.32 401 213 401 C213.33 401.99 213.66 402.98 214 404 C215.82697022 406.45695996 217.70977302 408.70977302 219.875 410.875 C223.63607291 414.63607291 227.01732221 418.71705955 230.25 422.9375 C230.8275 423.618125 231.405 424.29875 232 425 C232.66 425 233.32 425 234 425 C234.33 425.99 234.66 426.98 235 428 C235.66 428 236.32 428 237 428 C237.33 428.99 237.66 429.98 238 431 C238.61875 431.61875 239.2375 432.2375 239.875 432.875 C242 435 242 435 243.3125 437.375 C244.86871009 439.79577125 245.99737667 440.92846429 248.1875 442.6875 C252.11903068 445.89589501 255.04302394 449.66328436 258.13671875 453.6640625 C259.6578183 455.5710175 261.17501635 457.26136281 262.9375 458.9375 C265 461 265 461 266 464 C267.63604196 465.37073786 269.30678061 466.70055256 271 468 C272.35251497 469.31387169 273.68945377 470.64426252 275 472 C275.66 472.66 276.32 473.32 277 474 C277.4021875 474.8971875 277.4021875 474.8971875 277.8125 475.8125 C279.40787468 478.7513481 281.6092642 480.6635991 284 483 C286.6326329 485.96716636 289.17191648 489.01641663 291.7265625 492.05078125 C295.22785689 496.14590751 298.75077098 499.68352857 303 503 C305.9719385 501.87548273 308.33440687 500.77706209 311 499 C311 498.34 311 497.68 311 497 C311.8971875 496.5978125 311.8971875 496.5978125 312.8125 496.1875 C314.99847854 495.00082594 316.41332594 493.90400887 318 492 C318 491.34 318 490.68 318 490 C318.99 489.67 319.98 489.34 321 489 C324.65947253 485.71585799 327.61499237 482.31135995 330 478 C330.24774386 475.82423512 330.24774386 475.82423512 329 474 C327.38263741 472.6072711 325.7074998 471.28062485 324 470 C322.33333333 468.33333333 320.66666667 466.66666667 319 465 C318.34 464.67 317.68 464.34 317 464 C314.64440837 461.70639763 312.34997962 459.36126928 310.0625 457 C307.49194558 454.50734116 304.76080303 452.28066338 302 450 C301 449 300 448 299 447 C297.73280973 446.05758161 296.46128825 445.12098118 295.1875 444.1875 C292.20595285 441.96057452 289.59284137 439.67386766 287 437 C283.51772368 433.85781861 279.99196517 430.78434455 276.3125 427.875 C273.68405993 425.74383237 271.39343192 423.39343192 269 421 C265.16944914 417.49798179 261.31240328 414.04395715 257.25 410.8125 C254.64341372 408.71274994 252.36526894 406.36526894 250 404 C249.01 403.34 248.02 402.68 247 402 C245.40093881 400.20156477 243.90784462 398.3380251 242.40234375 396.4609375 C241.93957031 395.97882813 241.47679687 395.49671875 241 395 C240.34 395 239.68 395 239 395 C236.33993379 392.48372115 233.84195047 389.83459933 231.3125 387.1875 C229.28837851 384.77093338 229.28837851 384.77093338 227 385 C227 384.34 227 383.68 227 383 C224.36315253 380.60179695 224.36315253 380.60179695 221 380 C220.67 379.01 220.34 378.02 220 377 C217.36458982 374.59004634 217.36458982 374.59004634 214 374 Z M-44 403 C-44 403.66 -44 404.32 -44 405 C-44.99 405.33 -45.98 405.66 -47 406 C-48.68816933 407.64488294 -50.35353315 409.31337542 -52 411 C-53.1446875 411.8353125 -53.1446875 411.8353125 -54.3125 412.6875 C-54.869375 413.120625 -55.42625 413.55375 -56 414 C-56 414.66 -56 415.32 -56 416 C-57.03060547 416.19916016 -57.03060547 416.19916016 -58.08203125 416.40234375 C-58.98308594 416.57894531 -59.88414062 416.75554687 -60.8125 416.9375 C-61.70582031 417.11152344 -62.59914063 417.28554688 -63.51953125 417.46484375 C-66.11397171 417.97741153 -66.11397171 417.97741153 -69 419 C-70.57898305 419.09507553 -72.16157873 419.13533774 -73.7434082 419.1418457 C-75.18554436 419.15239738 -75.18554436 419.15239738 -76.65681458 419.16316223 C-77.69432358 419.16732651 -78.73183258 419.17149078 -79.80078125 419.17578125 C-81.99675437 419.19897972 -84.19271795 419.22309706 -86.38867188 419.24804688 C-89.85154612 419.28315933 -93.314069 419.31250608 -96.77709961 419.32592773 C-100.11875973 419.34141493 -103.45939289 419.38163078 -106.80078125 419.42578125 C-107.83221756 419.42387283 -108.86365387 419.42196442 -109.92634583 419.41999817 C-115.94332395 419.52219982 -119.40400515 420.01893966 -124 424 C-126.45198044 426.4158995 -126.45198044 426.4158995 -128 429 C-127.67 429.99 -127.34 430.98 -127 432 C-126.01 432.33 -125.02 432.66 -124 433 C-123.01 432.505 -123.01 432.505 -122 432 C-122 432.66 -122 433.32 -122 434 C-119.60468067 434.64779076 -117.20878252 435.29329009 -114.8125 435.9375 C-114.13896484 436.11990234 -113.46542969 436.30230469 -112.77148438 436.49023438 C-109.19644835 437.44939038 -105.63494628 438.30594877 -102 439 C-100.99066406 439.22558594 -99.98132813 439.45117188 -98.94140625 439.68359375 C-97.82636719 439.93238281 -96.71132812 440.18117188 -95.5625 440.4375 C-94.47066406 440.68371094 -93.37882812 440.92992187 -92.25390625 441.18359375 C-79.51603167 443.7241294 -67.20018671 444.40047021 -54.25 444.375 C-53.35313477 444.37545319 -52.45626953 444.37590637 -51.53222656 444.37637329 C-34.11885391 444.35060813 -16.51991777 443.60175053 0.03344727 437.67700195 C2.60994493 436.79002144 5.22296432 436.17033376 7.87109375 435.5390625 C11.95515969 434.50493204 15.97378708 433.23756545 20 432 C20 431.01 20 430.02 20 429 C18.650233 427.89249887 17.29418682 426.79208907 15.9140625 425.72265625 C12.59270954 422.73343858 9.98344339 419.13914916 7.24609375 415.62109375 C5.01910155 413.02229068 2.70474324 411.08091449 0 409 C-0.78375 408.13375 -1.5675 407.2675 -2.375 406.375 C-7.26353832 401.95203676 -13.06920707 401.81480292 -19.3671875 401.28515625 C-22.92569818 400.89973892 -26.37797337 400.17049382 -29.87109375 399.40234375 C-35.29594854 398.37709596 -39.21599899 400.6079995 -44 403 Z M248 470 C249 472 249 472 249 472 Z " fill="#FFFFFF" transform="translate(290,7)"/>
<path d="M0 0 C5.27289631 3.38971905 10.47419924 7.09404017 14.796875 11.6640625 C14.796875 12.3240625 14.796875 12.9840625 14.796875 13.6640625 C15.374375 13.9115625 15.951875 14.1590625 16.546875 14.4140625 C20.68397571 16.71245179 22.72997615 19.53026479 24.796875 23.6640625 C25.415625 24.25832031 26.034375 24.85257813 26.671875 25.46484375 C36.24258304 35.36982285 42.12831654 53.30121072 43.796875 66.6640625 C44.06177734 68.59572266 44.06177734 68.59572266 44.33203125 70.56640625 C44.50848427 71.91137037 44.68426047 73.25642345 44.859375 74.6015625 C44.95025391 75.26607422 45.04113281 75.93058594 45.13476562 76.61523438 C45.96462735 83.04822262 46.33951611 89.29809685 44.796875 95.6640625 C44.58289063 96.71980469 44.36890625 97.77554688 44.1484375 98.86328125 C41.7916908 110.17819956 38.81309501 120.23508335 33.796875 130.6640625 C33.136875 130.6640625 32.476875 130.6640625 31.796875 130.6640625 C31.714375 131.5509375 31.631875 132.4378125 31.546875 133.3515625 C30.69703152 137.10503787 29.45659691 138.92374296 26.796875 141.6640625 C26.136875 141.6640625 25.476875 141.6640625 24.796875 141.6640625 C24.52875 142.2003125 24.260625 142.7365625 23.984375 143.2890625 C22.58854167 146.08072917 21.19270833 148.87239583 19.796875 151.6640625 C18.476875 151.6640625 17.156875 151.6640625 15.796875 151.6640625 C15.631875 152.5509375 15.466875 153.4378125 15.296875 154.3515625 C13.19076034 159.00256571 10.18645132 160.32194777 5.796875 162.6640625 C4.33817597 163.47590577 2.87984642 164.28841325 1.421875 165.1015625 C0.67164063 165.51019531 -0.07859375 165.91882813 -0.8515625 166.33984375 C-3.35331155 167.74863599 -5.77071068 169.26409687 -8.203125 170.7890625 C-12.78007278 173.53243181 -17.07892167 175.24493433 -22.203125 176.6640625 C-23.24984375 177.01597656 -24.2965625 177.36789062 -25.375 177.73046875 C-42.90091418 183.03630986 -68.5472819 184.19320587 -85.67578125 176.5625 C-86.17980469 176.26601563 -86.68382812 175.96953125 -87.203125 175.6640625 C-87.203125 175.0040625 -87.203125 174.3440625 -87.203125 173.6640625 C-87.863125 173.7465625 -88.523125 173.8290625 -89.203125 173.9140625 C-93.46310253 173.55906437 -96.50546268 171.71613397 -100.203125 169.6640625 C-101.03328125 169.20902344 -101.8634375 168.75398437 -102.71875 168.28515625 C-104.88644624 167.08883332 -107.04733895 165.8816824 -109.203125 164.6640625 C-109.203125 164.0040625 -109.203125 163.3440625 -109.203125 162.6640625 C-110.0075 162.32375 -110.0075 162.32375 -110.828125 161.9765625 C-114.02772661 160.20836161 -116.49349723 158.12736047 -119.203125 155.6640625 C-119.203125 155.0040625 -119.203125 154.3440625 -119.203125 153.6640625 C-119.8425 153.3959375 -120.481875 153.1278125 -121.140625 152.8515625 C-123.203125 151.6640625 -123.203125 151.6640625 -124.203125 148.6640625 C-125.193125 148.3340625 -126.183125 148.0040625 -127.203125 147.6640625 C-127.203125 147.0040625 -127.203125 146.3440625 -127.203125 145.6640625 C-127.863125 145.6640625 -128.523125 145.6640625 -129.203125 145.6640625 C-129.491875 144.8596875 -129.780625 144.0553125 -130.078125 143.2265625 C-130.93575068 140.5314157 -130.93575068 140.5314157 -133.203125 139.6640625 C-133.533125 138.6740625 -133.863125 137.6840625 -134.203125 136.6640625 C-134.863125 136.3340625 -135.523125 136.0040625 -136.203125 135.6640625 C-141.34914739 129.4983948 -143.62477518 122.00299 -146.015625 114.4765625 C-146.31750732 113.52628174 -146.61938965 112.57600098 -146.93041992 111.59692383 C-154.0928201 88.23166465 -152.16150815 61.15921856 -141.22314453 39.26928711 C-139.65740208 36.32555639 -137.9600406 33.49892632 -136.203125 30.6640625 C-135.32527344 29.22160156 -135.32527344 29.22160156 -134.4296875 27.75 C-131.63520108 23.34697993 -131.63520108 23.34697993 -130.203125 21.6640625 C-129.543125 21.6640625 -128.883125 21.6640625 -128.203125 21.6640625 C-127.543125 19.6840625 -126.883125 17.7040625 -126.203125 15.6640625 C-125.0275 15.5403125 -125.0275 15.5403125 -123.828125 15.4140625 C-121.08681161 14.95410982 -121.08681161 14.95410982 -120.078125 12.7890625 C-119.789375 12.0878125 -119.500625 11.3865625 -119.203125 10.6640625 C-117.703125 8.9140625 -117.703125 8.9140625 -116.203125 7.6640625 C-115.543125 7.6640625 -114.883125 7.6640625 -114.203125 7.6640625 C-114.203125 7.0040625 -114.203125 6.3440625 -114.203125 5.6640625 C-112.57129393 4.60817181 -110.89519501 3.6204499 -109.203125 2.6640625 C-108.1925 1.9628125 -107.181875 1.2615625 -106.140625 0.5390625 C-103.60147886 -1.08166908 -102.04681044 -1.7040074 -99.203125 -2.3359375 C-98.873125 -2.9959375 -98.543125 -3.6559375 -98.203125 -4.3359375 C-97.213125 -4.3359375 -96.223125 -4.3359375 -95.203125 -4.3359375 C-94.873125 -4.9959375 -94.543125 -5.6559375 -94.203125 -6.3359375 C-92.20741177 -7.01532924 -90.20717727 -7.68155309 -88.203125 -8.3359375 C-87.543125 -8.9959375 -86.883125 -9.6559375 -86.203125 -10.3359375 C-83.87968659 -10.7324088 -81.54319081 -11.05371851 -79.203125 -11.3359375 C-76.46710454 -11.79960203 -73.74199552 -12.31882309 -71.015625 -12.8359375 C-70.31759766 -12.96613281 -69.61957031 -13.09632813 -68.90039062 -13.23046875 C-66.23193442 -13.73318457 -63.57911105 -14.23884578 -60.94921875 -14.91796875 C-41.86872833 -19.48533447 -15.99847211 -9.70120117 0 0 Z M-65.828125 8.9765625 C-66.54291016 9.10973877 -67.25769531 9.24291504 -67.99414062 9.38012695 C-73.24734786 10.39635823 -78.18563597 11.78250411 -83.203125 13.6640625 C-83.203125 14.3240625 -83.203125 14.9840625 -83.203125 15.6640625 C-84.564375 15.8496875 -84.564375 15.8496875 -85.953125 16.0390625 C-89.99617334 16.8165718 -92.30025221 17.76118971 -95.203125 20.6640625 C-95.533125 21.3240625 -95.863125 21.9840625 -96.203125 22.6640625 C-98.140625 23.7265625 -98.140625 23.7265625 -100.203125 24.6640625 C-100.863125 24.9940625 -101.523125 25.3240625 -102.203125 25.6640625 C-102.203125 26.3240625 -102.203125 26.9840625 -102.203125 27.6640625 C-102.821875 27.9115625 -103.440625 28.1590625 -104.078125 28.4140625 C-106.59022796 29.89177012 -106.96419844 31.10361427 -108.203125 33.6640625 C-109.193125 33.9940625 -110.183125 34.3240625 -111.203125 34.6640625 C-112.94939978 37.28347467 -113.59034888 38.70231127 -114.203125 41.6640625 C-114.863125 41.6640625 -115.523125 41.6640625 -116.203125 41.6640625 C-120.22486132 48.51012497 -123.23789483 54.97346178 -125.203125 62.6640625 C-125.57420251 63.97767688 -125.94877024 65.29031454 -126.328125 66.6015625 C-126.616875 67.6121875 -126.905625 68.6228125 -127.203125 69.6640625 C-127.533125 70.6540625 -127.863125 71.6440625 -128.203125 72.6640625 C-129.76518641 90.44139863 -127.07648743 106.04694462 -118.203125 121.6640625 C-117.543125 121.6640625 -116.883125 121.6640625 -116.203125 121.6640625 C-115.935 122.5921875 -115.666875 123.5203125 -115.390625 124.4765625 C-114.21127785 127.64217854 -113.54835095 128.45253114 -111.203125 130.6640625 C-109.42422062 132.66937289 -107.67397122 134.69781951 -105.921875 136.7265625 C-105.07109375 137.685625 -105.07109375 137.685625 -104.203125 138.6640625 C-103.6978125 139.2415625 -103.1925 139.8190625 -102.671875 140.4140625 C-101.14379852 141.98812181 -101.14379852 141.98812181 -98.203125 141.6640625 C-98.203125 142.3240625 -98.203125 142.9840625 -98.203125 143.6640625 C-97.543125 143.6640625 -96.883125 143.6640625 -96.203125 143.6640625 C-95.873125 144.3240625 -95.543125 144.9840625 -95.203125 145.6640625 C-79.51447373 157.11331719 -60.14899853 160.14470061 -41.203125 157.6640625 C-40.006875 157.5403125 -38.810625 157.4165625 -37.578125 157.2890625 C-27.77833542 155.47428665 -19.36033995 151.28347725 -11.203125 145.6640625 C-10.41679687 145.20902344 -9.63046875 144.75398437 -8.8203125 144.28515625 C-6.15626922 142.63503989 -3.87525677 140.84823182 -1.515625 138.7890625 C-0.74863281 138.13164062 0.01835937 137.47421875 0.80859375 136.796875 C2.9349886 134.5159092 3.83793 132.60756214 4.796875 129.6640625 C5.456875 129.6640625 6.116875 129.6640625 6.796875 129.6640625 C8.25455635 128.06107511 8.25455635 128.06107511 9.796875 125.6640625 C10.16941406 125.1278125 10.54195312 124.5915625 10.92578125 124.0390625 C21.73323639 107.77706104 25.09535499 87.71102667 21.453125 68.61328125 C21.2365625 67.64003906 21.02 66.66679687 20.796875 65.6640625 C20.6009375 64.72175781 20.405 63.77945313 20.203125 62.80859375 C17.11042206 49.75665099 9.44334512 38.80282367 -0.203125 29.6640625 C-5.203125 24.6640625 -5.203125 24.6640625 -7.015625 22.6015625 C-11.29250756 18.81346652 -16.51586712 16.37496973 -22.203125 15.6640625 C-22.203125 15.0040625 -22.203125 14.3440625 -22.203125 13.6640625 C-36.73653498 8.78961435 -50.50665241 6.11170037 -65.828125 8.9765625 Z " fill="#FFFFFF" transform="translate(456.203125,210.3359375)"/>
<path d="M0 0 C1.27230469 -0.03867187 1.27230469 -0.03867187 2.5703125 -0.078125 C5.37232951 0.32080624 6.07140774 1.14319512 7.875 3.25 C8.679375 3.724375 9.48375 4.19875 10.3125 4.6875 C14.08784005 6.98953661 16.43209798 9.58564697 18.875 13.25 C18.875 13.91 18.875 14.57 18.875 15.25 C19.535 15.25 20.195 15.25 20.875 15.25 C24.87852058 24.59154801 24.44664198 30.59968993 20.9453125 40.02734375 C19.875 42.25 19.875 42.25 17.875 43.25 C17.606875 43.9925 17.33875 44.735 17.0625 45.5 C14.95280925 50.38559963 11.74057588 53.10708931 6.875 55.0625 C3.79327471 56.10141496 1.15088447 56.55711417 -2.125 56.25 C-2.62 57.24 -2.62 57.24 -3.125 58.25 C-4.115 57.755 -4.115 57.755 -5.125 57.25 C-8.60414025 57.59221052 -11.96378563 57.98544507 -15.37109375 58.76171875 C-19.74043129 59.53642399 -24.16597732 59.60777295 -28.59375 59.76757812 C-30.44227479 59.85829277 -32.28549366 60.04631037 -34.125 60.25 C-34.455 60.91 -34.785 61.57 -35.125 62.25 C-35.785 61.92 -36.445 61.59 -37.125 61.25 C-38.87548661 61.25572054 -40.6259723 61.30331854 -42.375 61.375 C-47.10490055 61.41828014 -50.09082274 60.90665332 -54.125 58.25 C-55.300625 57.4765625 -55.300625 57.4765625 -56.5 56.6875 C-57.03625 56.213125 -57.5725 55.73875 -58.125 55.25 C-58.125 54.59 -58.125 53.93 -58.125 53.25 C-58.785 53.25 -59.445 53.25 -60.125 53.25 C-64.49137828 46.84597853 -67.05235175 39.39944099 -65.64453125 31.58203125 C-63.72688002 25.61492361 -60.79302234 21.48378771 -56.125 17.25 C-53.13548377 15.75524188 -51.4780811 15.25 -48.125 15.25 C-47.795 14.59 -47.465 13.93 -47.125 13.25 C-44.71875 12.28515625 -44.71875 12.28515625 -41.625 11.3125 C-40.52671875 10.961875 -39.4284375 10.61125 -38.296875 10.25 C-36.72679687 9.755 -36.72679687 9.755 -35.125 9.25 C-33.7072308 8.77410544 -32.29043768 8.29528495 -30.875 7.8125 C-26.55485363 6.37509836 -22.21677538 4.99539122 -17.875 3.625 C-16.84584473 3.29737671 -16.84584473 3.29737671 -15.79589844 2.96313477 C-10.47582617 1.29395235 -5.58100138 0.1024037 0 0 Z M-9.3125 24.9375 C-26.82756342 32.00409619 -26.82756342 32.00409619 -34.125 33.25 C-34.125 33.91 -34.125 34.57 -34.125 35.25 C-36.765 35.58 -39.405 35.91 -42.125 36.25 C-42.125 36.91 -42.125 37.57 -42.125 38.25 C-37.92911786 38.3322722 -34.22038034 38.08158105 -30.125 37.25 C-28.54339573 37.10475063 -26.95971977 36.98098444 -25.375 36.875 C-20.23070427 36.42461022 -15.15587899 35.71101817 -10.0625 34.875 C-9.31194336 34.7610791 -8.56138672 34.6471582 -7.78808594 34.52978516 C-5.88055338 34.20314092 -3.99841809 33.73547047 -2.125 33.25 C0.11680162 30.56973545 0.11680162 30.56973545 -0.3125 28.25 C-1.23098485 25.98911422 -2.26042418 24.80381318 -4.125 23.25 C-5.95841716 23.25 -7.64107494 24.24766225 -9.3125 24.9375 Z " fill="#FFFFFF" transform="translate(188.125,341.75)"/>
<path d="M0 0 C2.2873944 1.98371463 3.97880579 4.17925599 5.82421875 6.58203125 C6.73098664 7.7087135 7.63997857 8.83360819 8.55078125 9.95703125 C9.5172447 11.16511056 10.4833853 12.37344821 11.44921875 13.58203125 C12.18398438 14.48695312 12.18398438 14.48695312 12.93359375 15.41015625 C15.53030035 18.67377656 17.52735514 21.55412545 18.82421875 25.58203125 C19.48421875 25.58203125 20.14421875 25.58203125 20.82421875 25.58203125 C20.82421875 26.57203125 20.82421875 27.56203125 20.82421875 28.58203125 C21.48421875 28.58203125 22.14421875 28.58203125 22.82421875 28.58203125 C26.95313257 35.21331708 27.46510441 39.94467374 25.82421875 47.58203125 C24.04808503 52.17908322 20.44583211 54.83578646 16.74609375 57.94140625 C14.71012783 59.62053454 14.71012783 59.62053454 12.63671875 61.89453125 C8.65912402 65.5978091 4.47687828 65.94819386 -0.75 65.8515625 C-4.77281328 65.40458325 -8.43045693 64.06953594 -12.17578125 62.58203125 C-12.17578125 61.92203125 -12.17578125 61.26203125 -12.17578125 60.58203125 C-12.87703125 60.47890625 -13.57828125 60.37578125 -14.30078125 60.26953125 C-20.09722863 58.88342427 -24.01948587 56.69740653 -27.17578125 51.58203125 C-29.15535799 46.45634149 -30.39373807 41.31545477 -30.92578125 35.83984375 C-31.24903743 32.92043637 -31.75433499 30.04148734 -32.23828125 27.14453125 C-33.58179613 18.26297486 -34.57192148 11.2572866 -29.17578125 3.58203125 C-21.39622475 -4.55114146 -9.41485731 -6.2173586 0 0 Z M-8.17578125 26.58203125 C-8.53550607 33.36720445 -8.53550607 33.36720445 -6.17578125 39.58203125 C-3.26121787 41.15141153 -1.49636456 41.58203125 1.82421875 41.58203125 C1.22734441 38.23953496 0.08817998 36.11766783 -2.17578125 33.58203125 C-2.83578125 33.58203125 -3.49578125 33.58203125 -4.17578125 33.58203125 C-4.60890625 32.12796875 -4.60890625 32.12796875 -5.05078125 30.64453125 C-5.81792807 27.47538922 -5.81792807 27.47538922 -8.17578125 26.58203125 Z " fill="#FFFFFF" transform="translate(274.17578125,92.41796875)"/>
</svg>
